<!-- <svg xmlns="http://www.w3.org/2000/svg" xml:space="preserve" style="fill-rule:evenodd;clip-rule:evenodd;stroke-linejoin:round;stroke-miterlimit:2" viewBox="0 0 133 48">
  <path d="M0 0h80v48H0z" style="fill:none" transform="scale(1.65585 1)"/>
  <path d="M82.322 31.681h.357a.5.5 0 0 0 .475-.499v-.839s-.008-.5-.505-.5l-.241.001c-1.34-.001-2.376-.597-3.109-1.781-.793-1.281-1.173-3.088-1.173-5.414 0-2.282.38-4.059 1.172-5.324.733-1.171 1.771-1.759 3.116-1.759h.24a.5.5 0 0 0 .5-.5s.092-.616 0-.839c-.092-.223-.114-.5-.552-.5h-.188c-1.964 0-3.483.81-4.559 2.426-1.022 1.536-1.55 3.698-1.55 6.496 0 2.834.527 5.023 1.548 6.576 1.06 1.612 2.55 2.431 4.469 2.456Zm1.719 0h.357c1.92-.025 3.41-.844 4.469-2.456 1.021-1.553 1.549-3.742 1.549-6.576 0-2.798-.528-4.96-1.55-6.496-1.076-1.616-2.596-2.426-4.56-2.426h-.235c-.324 0-.485.212-.535.516-.058.36.031.823.031.823a.5.5 0 0 0 .5.5h.239c1.346 0 2.384.588 3.117 1.759.792 1.265 1.172 3.042 1.172 5.324 0 2.32-.381 4.126-1.174 5.41-.733 1.187-1.769 1.784-3.115 1.784h-.235c-.497-.033-.495.264-.504.5-.012.319 0 .839 0 .839a.5.5 0 0 0 .474.499Zm10.761-8.948c.114-.075.22-.158.318-.249.497-.461.763-1.103.763-1.941 0-.585-.072-1.144-.214-1.675-.12-.45-.18-.922-.18-1.417 0-.625.137-1.117.45-1.464.297-.332.739-.477 1.308-.477.117 0 .249.01.393.028.161.021.326.046.495.076a.5.5 0 0 0 .581-.415l.119-.764a.5.5 0 0 0-.328-.549 4.001 4.001 0 0 0-1.414-.215c-1.092 0-1.932.351-2.531 1.019-.582.648-.894 1.564-.894 2.761 0 .561.065 1.11.194 1.644.111.461.166.956.166 1.486 0 .16-.029.305-.091.432a.811.811 0 0 1-.261.305c-.135.1-.301.172-.494.223a2.966 2.966 0 0 1-.758.086.5.5 0 0 0-.5.5v1.23a.5.5 0 0 0 .5.5c.406 0 .748.033 1.024.105.194.05.347.127.449.251.1.123.131.3.131.522 0 .507-.056.997-.167 1.47a7.26 7.26 0 0 0-.193 1.66c0 1.228.307 2.177.883 2.861.602.715 1.445 1.086 2.542 1.086.319 0 .588-.02.805-.059a3.89 3.89 0 0 0 .609-.155.5.5 0 0 0 .329-.544l-.111-.764a.5.5 0 0 0-.562-.423c-.185.025-.361.05-.529.075a2.595 2.595 0 0 1-.387.032c-.565 0-1.003-.157-1.298-.507-.319-.379-.46-.916-.46-1.602 0-.471.06-.931.18-1.38.142-.53.214-1.101.214-1.712 0-.762-.265-1.363-.773-1.81a2.35 2.35 0 0 0-.308-.23Zm10.097-.016a2.394 2.394 0 0 0-.292.212c-.509.432-.779 1.042-.779 1.844 0 .611.072 1.182.214 1.712.119.449.179.909.179 1.38 0 .686-.14 1.223-.459 1.602-.296.35-.733.507-1.298.507-.123 0-.255-.01-.397-.029-.159-.02-.327-.046-.503-.076a.5.5 0 0 0-.578.421l-.112.764a.501.501 0 0 0 .335.546c.188.063.39.114.607.153.214.039.481.059.802.059 1.096 0 1.939-.371 2.541-1.086.576-.684.883-1.633.883-2.861 0-.56-.064-1.113-.193-1.66a6.413 6.413 0 0 1-.166-1.47c0-.241.027-.429.128-.551.099-.119.25-.189.441-.233a4.783 4.783 0 0 1 1.035-.094.5.5 0 0 0 .5-.5v-1.23a.5.5 0 0 0-.5-.5c-.279 0-.529-.029-.747-.092a1.542 1.542 0 0 1-.501-.237.868.868 0 0 1-.267-.311.896.896 0 0 1-.089-.406c0-.53.055-1.025.166-1.486a6.982 6.982 0 0 0 .193-1.644c0-1.197-.311-2.113-.893-2.761-.6-.668-1.439-1.019-2.531-1.019-.321 0-.588.021-.802.06-.217.038-.419.09-.607.153a.5.5 0 0 0-.334.551l.12.764a.5.5 0 0 0 .578.416 14.2 14.2 0 0 1 .5-.077c.138-.019.269-.028.391-.028.569 0 1.011.144 1.309.473.312.345.448.838.448 1.468 0 .495-.059.967-.179 1.417a6.419 6.419 0 0 0-.214 1.675c0 .797.258 1.432.754 1.914.098.096.204.183.317.26Z" style="fill:#c6bc78;fill-rule:nonzero" transform="rotate(.069)"/>
  <path d="M40.028 18.486v.548c0 .188.105.36.272.445l6.318 3.235-6.318 3.235a.499.499 0 0 0-.272.445v.931a.499.499 0 0 0 .732.443l7.782-4.09a.5.5 0 0 0 .267-.442v-1.044a.499.499 0 0 0-.267-.442l-7.782-4.09a.497.497 0 0 0-.346-.044l1.372-3.093a.502.502 0 0 0-.457-.702h-.838a.499.499 0 0 0-.457.297l-7.44 16.768a.502.502 0 0 0 .457.703h.838a.5.5 0 0 0 .457-.298l5.682-12.805Zm-13.155 4.228 6.318-3.235a.499.499 0 0 0 .272-.445v-.931a.501.501 0 0 0-.733-.443l-7.781 4.09a.498.498 0 0 0-.268.442v1.044c0 .185.103.356.268.442l7.781 4.09a.502.502 0 0 0 .733-.443v-.931a.499.499 0 0 0-.272-.445l-6.318-3.235Z" style="fill:#c25f45;fill-rule:nonzero" transform="rotate(.069)"/>
  <path d="M66.727 22.717a2.319 2.319 0 0 0-.292.212c-.509.432-.779 1.042-.779 1.844 0 .611.071 1.182.213 1.712.12.449.18.909.18 1.38 0 .686-.14 1.223-.46 1.602-.295.35-.733.507-1.298.507-.122 0-.254-.01-.396-.029a11.5 11.5 0 0 1-.503-.076.5.5 0 0 0-.579.421l-.111.764a.5.5 0 0 0 .335.546c.187.063.389.114.606.153.215.039.482.059.802.059 1.097 0 1.94-.371 2.542-1.086.576-.684.883-1.633.883-2.861 0-.56-.064-1.113-.193-1.66a6.413 6.413 0 0 1-.166-1.47c0-.241.026-.429.128-.551.099-.119.25-.189.44-.233a4.796 4.796 0 0 1 1.035-.094.5.5 0 0 0 .5-.5v-1.23a.5.5 0 0 0-.5-.5c-.279 0-.528-.029-.747-.092a1.562 1.562 0 0 1-.501-.237.875.875 0 0 1-.266-.311.896.896 0 0 1-.089-.406c0-.53.054-1.025.165-1.486a6.983 6.983 0 0 0 .194-1.644c0-1.197-.312-2.113-.894-2.761-.599-.668-1.439-1.019-2.531-1.019a4.126 4.126 0 0 0-1.408.213.5.5 0 0 0-.334.551l.12.764a.497.497 0 0 0 .577.416c.177-.03.343-.056.5-.077.139-.019.269-.028.391-.028.57 0 1.012.144 1.31.473.312.345.448.838.448 1.468 0 .495-.06.967-.18 1.417a6.461 6.461 0 0 0-.213 1.675c0 .797.258 1.432.754 1.914.098.096.203.183.317.26Zm-9.572.016c.114-.075.22-.158.318-.249.497-.461.763-1.103.763-1.941 0-.585-.072-1.144-.214-1.675-.12-.45-.18-.922-.18-1.417 0-.625.137-1.117.45-1.464.297-.332.739-.477 1.308-.477.117 0 .249.01.393.028.161.021.326.046.495.076a.5.5 0 0 0 .581-.415l.119-.764a.5.5 0 0 0-.328-.549 4.001 4.001 0 0 0-1.414-.215c-1.092 0-1.932.351-2.531 1.019-.582.648-.894 1.564-.894 2.761 0 .561.065 1.11.194 1.644.111.461.166.956.166 1.486 0 .16-.029.305-.091.432a.811.811 0 0 1-.261.305c-.135.1-.301.172-.494.223a2.966 2.966 0 0 1-.758.086.5.5 0 0 0-.5.5v1.23a.5.5 0 0 0 .5.5c.406 0 .748.033 1.024.105.194.05.347.127.449.251.1.123.131.3.131.522 0 .507-.056.997-.167 1.47a7.26 7.26 0 0 0-.193 1.66c0 1.228.307 2.177.883 2.861.602.715 1.445 1.086 2.542 1.086.319 0 .588-.02.805-.059a3.89 3.89 0 0 0 .609-.155.5.5 0 0 0 .329-.544l-.111-.764a.5.5 0 0 0-.562-.423c-.185.025-.361.05-.529.075a2.595 2.595 0 0 1-.387.032c-.565 0-1.003-.157-1.298-.507-.319-.379-.46-.916-.46-1.602 0-.471.06-.931.18-1.38.142-.53.214-1.101.214-1.712 0-.762-.265-1.363-.773-1.81a2.35 2.35 0 0 0-.308-.23Z" style="fill:#32688a;fill-rule:nonzero" transform="rotate(.069)"/>
</svg> -->
<svg viewBox="0 0 62 40" xmlns="http://www.w3.org/2000/svg" xml:space="preserve" style="fill-rule:evenodd;clip-rule:evenodd;stroke-linejoin:round;stroke-miterlimit:2">
  <path d="M30.894 58.522a2.193 2.193 0 0 0 2.212 0l23.798-13.883A2.221 2.221 0 0 0 58 42.719v-6.84c0-.362-.19-.696-.5-.877a.99.99 0 0 0-.999-.001L33.106 48.648c-.685.4-1.527.4-2.212 0L7.499 35.001a.99.99 0 0 0-.999.001c-.31.181-.5.515-.5.877v6.84c0 .792.418 1.525 1.096 1.92l23.798 13.883Z" style="fill:#fff" transform="matrix(.46154 0 0 .4557 16.045 -2.817)" />
  <path d="M32 3.881C42 3.881 50.119 12 50.119 22S42 40.119 32 40.119 13.881 32 13.881 22 22 3.881 32 3.881Zm0 7.578c5.845 0 10.637 4.696 10.637 10.541 0 5.845-4.792 10.541-10.637 10.541-5.845 0-10.637-4.696-10.637-10.541 0-5.845 4.792-10.541 10.637-10.541Z" style="fill:#fff" transform="matrix(.401 0 0 .39593 17.982 -1.537)" />
  <path d="M3.563 13.454c1.45 0 2.321-.6 2.96-1.24.48.884 1.617 1.161 2.516 1.134a.461.461 0 0 0 .42-.341l.274-.935c.084-.285-.118-.56-.354-.742-.236-.182-.38-.49-.38-.995V6.972c0-2.01-.715-3.458-3.792-3.458-1.358 0-2.594.267-3.694.67a.487.487 0 0 0-.299.58l.254.984c.074.291.387.45.672.358.856-.277 1.744-.43 2.448-.43 1.064 0 1.548.6 1.548 1.296v.45c-1.877.114-5.747.189-5.747 3.27 0 1.729 1.123 2.762 3.174 2.762Zm1.006-1.935c-.774 0-1.316-.432-1.316-1.146 0-1.109 1.393-1.485 2.883-1.54v2.028a2.35 2.35 0 0 1-1.567.658Zm10.951.587c.083-.297-.129-.583-.412-.705-.447-.193-.647-.58-.647-1.272V.596a.503.503 0 0 0-.555-.497l-1.921.21a.502.502 0 0 0-.446.497v9.604c0 2.148 1.124 3.103 3.304 2.945a.483.483 0 0 0 .424-.354l.253-.895Zm4.443 1.348c1.452 0 2.322-.6 2.96-1.24.482.884 1.618 1.161 2.517 1.134a.461.461 0 0 0 .42-.341l.274-.935c.084-.285-.119-.56-.354-.742-.236-.182-.38-.49-.38-.995V6.972c0-2.01-.715-3.458-3.792-3.458-1.358 0-2.594.267-3.694.67a.487.487 0 0 0-.299.58l.254.984c.074.291.387.45.672.358.856-.277 1.744-.43 2.448-.43 1.064 0 1.548.6 1.548 1.296v.45c-1.877.114-5.747.189-5.747 3.27 0 1.729 1.123 2.762 3.174 2.762h-.001Zm1.007-1.935c-.774 0-1.316-.432-1.316-1.146 0-1.109 1.393-1.485 2.883-1.54v2.028a2.35 2.35 0 0 1-1.567.658Zm9.314 1.672c.274 0 .5-.226.5-.5v-6.32c.58-.357 1.277-.64 1.838-.64.93 0 1.045.546 1.045 1.523v5.437c0 .274.226.5.5.5h1.922c.274 0 .5-.226.5-.5v-5.23c0-.376-.02-.696-.039-1.053.639-.413 1.277-.676 1.858-.676.909 0 1.064.526 1.064 1.522v5.437c0 .274.226.5.5.5h1.883c.274 0 .5-.226.5-.5V7.066c0-1.804-.31-3.552-3-3.552-1.18 0-2.147.433-3.23 1.165-.407-.751-1.2-1.165-2.554-1.165-1.336 0-2.458.583-3.31 1.222l-.125-.567a.5.5 0 0 0-.488-.392h-1.266c-.274 0-.5.226-.5.5v8.414c0 .274.226.5.5.5h1.902Zm18.649.282c3.057 0 4.663-1.747 4.663-4.998 0-3.232-1.606-4.96-4.663-4.96-3.057 0-4.702 1.728-4.702 4.96 0 3.25 1.645 4.998 4.702 4.998Zm0-2.217c-1.122 0-1.722-.827-1.722-2.781 0-1.954.6-2.762 1.722-2.762 1.122 0 1.683.808 1.683 2.762 0 1.936-.561 2.781-1.683 2.781Zm9.747 2.198c1.219 0 2.225-.695 2.883-1.202l.073.51c.035.246.247.43.495.43h1.273c.274 0 .5-.226.5-.5V.595A.502.502 0 0 0 63.349.1l-1.902.21a.502.502 0 0 0-.445.497v3.197a4.24 4.24 0 0 0-1.916-.489c-2.438 0-4.18 1.654-4.18 5.093 0 3.4 1.607 4.848 3.774 4.848v-.002Zm.793-2.217c-1.103 0-1.587-.902-1.587-2.687 0-2.01.697-2.837 1.684-2.837.542 0 1.006.188 1.432.376v4.547c-.445.32-1.026.601-1.529.601Zm9.41 2.217c1.451 0 2.322-.6 2.96-1.24.481.884 1.617 1.161 2.516 1.134a.46.46 0 0 0 .421-.341l.274-.935c.083-.285-.119-.56-.354-.742-.236-.182-.38-.49-.38-.995V6.972c0-2.01-.716-3.458-3.792-3.458-1.359 0-2.595.267-3.695.67a.488.488 0 0 0-.298.58l.253.984c.075.291.387.45.673.358.855-.277 1.744-.43 2.448-.43 1.064 0 1.547.6 1.547 1.296v.45c-1.876.114-5.746.189-5.746 3.27 0 1.729 1.122 2.762 3.173 2.762Zm1.006-1.935c-.774 0-1.316-.432-1.316-1.146 0-1.109 1.394-1.485 2.883-1.54v2.028a2.35 2.35 0 0 1-1.567.658Zm10.951.587c.084-.297-.128-.583-.412-.705-.447-.193-.647-.58-.647-1.272V.596a.503.503 0 0 0-.554-.497l-1.922.21a.502.502 0 0 0-.446.497v9.604c0 2.148 1.124 3.103 3.304 2.945a.483.483 0 0 0 .425-.354l.252-.895Z" style="fill:#faf5f5;fill-rule:nonzero" transform="matrix(.76586 0 0 .76586 -.298 29.215)" />
</svg>