<svg viewBox="0 0 256 256" xmlns="http://www.w3.org/2000/svg" xml:space="preserve" style="fill-rule:evenodd;clip-rule:evenodd;stroke-linejoin:round;stroke-miterlimit:2"><path style="fill:none" d="M-159.856 628.927H96.326v256.182h-256.182z" transform="translate(159.743 -628.48) scale(.99929)"/><path d="M-397.681 614.688c0-.641.181-1.203.544-1.687.362-.484.868-.857 1.516-1.121.649-.264 1.393-.396 2.232-.396.42 0 .846.032 1.278.095.433.064.808.166 1.126.305v-.531c0-.625-.188-1.106-.563-1.443-.375-.337-.931-.506-1.669-.506-.547 0-1.068.096-1.564.287-.496.19-1.018.47-1.565.839l-.82-1.679a8.145 8.145 0 0 1 2.032-.973 7.297 7.297 0 0 1 2.184-.324c1.424 0 2.534.351 3.329 1.053.795.702 1.192 1.705 1.192 3.009v3.141c0 .263.048.451.143.564.096.113.252.182.468.207v2.079c-.229.039-.436.07-.62.096-.185.025-.34.038-.468.038-.508 0-.893-.114-1.154-.343a1.458 1.458 0 0 1-.486-.84l-.057-.515c-.433.56-.973.992-1.622 1.297a4.605 4.605 0 0 1-1.984.458c-.661 0-1.256-.135-1.784-.405a3.12 3.12 0 0 1-1.24-1.112 2.909 2.909 0 0 1-.448-1.593Zm77.185-11.007h2.556v10.756c0 .459.076.769.229.928.153.16.363.239.63.239.203 0 .413-.025.629-.076a2.97 2.97 0 0 0 .572-.191l.344 1.946a4.965 4.965 0 0 1-1.202.382 6.554 6.554 0 0 1-1.24.133c-.801 0-1.421-.213-1.86-.641-.439-.427-.658-1.036-.658-1.826v-11.65Zm-66.139 0h2.556v10.756c0 .459.076.769.229.928.152.16.362.239.629.239.204 0 .414-.025.63-.076a2.97 2.97 0 0 0 .572-.191l.343 1.946a4.956 4.956 0 0 1-1.201.382 6.563 6.563 0 0 1-1.24.133c-.802 0-1.422-.213-1.86-.641-.439-.427-.658-1.036-.658-1.826v-11.65Zm55.093 11.007c0-.641.182-1.203.544-1.687.363-.484.868-.857 1.517-1.121.648-.264 1.392-.396 2.232-.396.419 0 .845.032 1.278.095.432.064.807.166 1.125.305v-.531c0-.625-.187-1.106-.562-1.443-.376-.337-.932-.506-1.67-.506-.547 0-1.068.096-1.564.287a7.86 7.86 0 0 0-1.564.839l-.821-1.679a8.161 8.161 0 0 1 2.032-.973 7.297 7.297 0 0 1 2.184-.324c1.425 0 2.534.351 3.329 1.053.795.702 1.193 1.705 1.193 3.009v3.141c0 .263.047.451.143.564.095.113.251.182.467.207v2.079c-.229.039-.435.07-.62.096-.184.025-.34.038-.467.038-.509 0-.894-.114-1.154-.343a1.46 1.46 0 0 1-.487-.84l-.057-.515c-.433.56-.973.992-1.622 1.297a4.602 4.602 0 0 1-1.984.458c-.661 0-1.256-.135-1.783-.405a3.113 3.113 0 0 1-1.24-1.112 2.91 2.91 0 0 1-.449-1.593Zm-17.417 3.11c-.814 0-1.545-.135-2.194-.405a4.77 4.77 0 0 1-1.65-1.123 5.052 5.052 0 0 1-1.039-1.641 5.271 5.271 0 0 1-.363-1.943c0-.692.121-1.346.363-1.962a5.046 5.046 0 0 1 1.039-1.642 4.754 4.754 0 0 1 1.65-1.122c.649-.271 1.38-.406 2.194-.406.814 0 1.542.135 2.185.406a4.839 4.839 0 0 1 2.689 2.764c.236.616.353 1.27.353 1.962 0 .679-.117 1.326-.353 1.943a4.914 4.914 0 0 1-1.03 1.641 4.751 4.751 0 0 1-1.65 1.123c-.649.27-1.38.405-2.194.405Zm5.761-5.131c0-.956.191-1.821.573-2.594a4.631 4.631 0 0 1 1.583-1.84c.674-.453 1.444-.679 2.308-.679.738 0 1.403.181 1.994.544a3.997 3.997 0 0 1 1.383 1.383v-5.8h2.556v11.065c0 .267.045.458.134.572.089.115.241.185.458.21v2.079a5.806 5.806 0 0 1-1.088.134c-.458 0-.836-.114-1.135-.343a1.248 1.248 0 0 1-.505-.897l-.038-.63a3.715 3.715 0 0 1-1.498 1.431 4.189 4.189 0 0 1-1.974.496 4.523 4.523 0 0 1-3.406-1.49 5.04 5.04 0 0 1-.992-1.632 5.643 5.643 0 0 1-.353-2.009Zm-38.63 2.021c0-.641.181-1.203.544-1.687.362-.484.868-.857 1.516-1.121.649-.264 1.393-.396 2.232-.396.42 0 .846.032 1.278.095.433.064.808.166 1.126.305v-.531c0-.625-.188-1.106-.563-1.443-.375-.337-.932-.506-1.669-.506-.547 0-1.068.096-1.564.287-.496.19-1.018.47-1.565.839l-.82-1.679a8.145 8.145 0 0 1 2.032-.973 7.297 7.297 0 0 1 2.184-.324c1.424 0 2.534.351 3.329 1.053.795.702 1.192 1.705 1.192 3.009v3.141c0 .263.048.451.143.564.096.113.251.182.468.207v2.079c-.229.039-.436.07-.62.096a3.604 3.604 0 0 1-.468.038c-.508 0-.893-.114-1.154-.343a1.453 1.453 0 0 1-.486-.84l-.058-.515c-.432.56-.973.992-1.621 1.297a4.605 4.605 0 0 1-1.984.458c-.661 0-1.256-.135-1.784-.405a3.113 3.113 0 0 1-1.24-1.112 2.909 2.909 0 0 1-.448-1.593Zm26.593 2.919h-2.556v-5.527c0-.777-.137-1.351-.41-1.72-.274-.37-.652-.555-1.136-.555-.496 0-.969.191-1.421.574-.451.382-.772.88-.963 1.494v5.734h-2.556v-5.527c0-.79-.137-1.366-.411-1.73-.273-.363-.651-.545-1.135-.545-.496 0-.969.186-1.421.559-.451.373-.773.863-.963 1.472v5.771h-2.557v-9.9h2.309v1.846a3.942 3.942 0 0 1 1.526-1.48c.636-.346 1.367-.519 2.194-.519.826 0 1.472.201 1.936.604.464.402.76.899.887 1.49.407-.679.925-1.198 1.555-1.556.629-.359 1.338-.538 2.127-.538.623 0 1.129.11 1.517.33.387.22.689.516.906.887.216.37.365.789.448 1.254.083.465.124.937.124 1.415v6.167Zm29.912-2.422c.14-.149.255-.298.344-.447a.807.807 0 0 0 .133-.409v-.986a5.24 5.24 0 0 0-.992-.288 5.397 5.397 0 0 0-1.011-.102c-.661 0-1.205.139-1.631.418-.426.279-.639.648-.639 1.107 0 .248.07.484.21.707.14.223.343.403.61.539.268.136.585.205.954.205.382 0 .757-.072 1.126-.214.369-.143.668-.319.896-.53Zm-66.139 0c.14-.149.254-.298.343-.447a.81.81 0 0 0 .134-.409v-.986a5.24 5.24 0 0 0-.992-.288 5.397 5.397 0 0 0-1.011-.102c-.661 0-1.205.139-1.631.418-.426.279-.639.648-.639 1.107 0 .248.07.484.21.707.14.223.343.403.61.539.267.136.585.205.954.205.381 0 .757-.072 1.125-.214.369-.143.668-.319.897-.53Zm15.853 0c.14-.149.254-.298.343-.447a.81.81 0 0 0 .134-.409v-.986a5.24 5.24 0 0 0-.992-.288 5.397 5.397 0 0 0-1.011-.102c-.662 0-1.205.139-1.631.418-.426.279-.639.648-.639 1.107 0 .248.07.484.209.707.14.223.344.403.611.539s.585.205.954.205a3.11 3.11 0 0 0 1.125-.214c.369-.143.668-.319.897-.53Zm24.037-2.5c0 .574.114 1.083.343 1.526.229.443.541.789.935 1.038.394.25.839.374 1.335.374.484 0 .922-.127 1.317-.383a2.77 2.77 0 0 0 .944-1.048c.235-.443.353-.951.353-1.525 0-.562-.118-1.067-.353-1.516a2.678 2.678 0 0 0-.944-1.048 2.409 2.409 0 0 0-1.317-.374c-.496 0-.941.128-1.335.383a2.701 2.701 0 0 0-.935 1.048c-.229.443-.343.951-.343 1.525Zm16.215 1.292v-2.339a2.642 2.642 0 0 0-.61-.974 3.399 3.399 0 0 0-.935-.683 2.329 2.329 0 0 0-1.03-.252 2.32 2.32 0 0 0-1.069.243c-.318.162-.594.38-.829.655a2.827 2.827 0 0 0-.535.954c-.12.362-.181.743-.181 1.142 0 .399.067.776.2 1.132.134.355.328.664.582.926.255.262.55.468.887.618.337.15.703.224 1.097.224.242 0 .487-.04.735-.121a3.03 3.03 0 0 0 .706-.337c.222-.143.419-.318.591-.524.172-.206.302-.427.391-.664Zm-56.754-7.529-1.64-.496 1.03-2.271h2.385l-1.775 2.767Zm34.201-6.112a.368.368 0 0 0 .298-.078.356.356 0 0 0 .131-.275v-14.44a.36.36 0 0 0-.311-.354c-2.664-.671-21.576-5.603-25.404-6.602a.542.542 0 0 0-.464.093.521.521 0 0 0-.207.419l.07 12.785c.005.805.55 1.508 1.337 1.725 4.197 1.154 21.587 5.929 24.55 6.727Zm2.241-15.165a.36.36 0 0 0-.312.354v14.44c0 .106.048.207.131.275a.375.375 0 0 0 .301.078c2.988-.798 20.521-5.576 24.751-6.731a1.81 1.81 0 0 0 1.348-1.725l.072-12.781a.522.522 0 0 0-.208-.419.55.55 0 0 0-.468-.093c-3.86.999-22.928 5.931-25.615 6.602Zm-17.552-11.003s-.183 4.653 16.49 4.653c17.064 0 17.328-4.461 17.318-4.486l9.971 1.979a.322.322 0 0 1 .246.308.32.32 0 0 1-.247.308l-25.712 6.558c-.941.24-1.931.24-2.872 0l-25.713-6.558a.32.32 0 0 1-.246-.308c0-.144.101-.27.246-.308l10.519-2.146Zm11.602-20.334a.439.439 0 0 0-.111.278c0 .722 2.458 1.425 5.139 1.425 2.659 0 5.15-.717 5.185-1.43 5.545 1.582 9.241 5.621 9.241 11.351 0 2.075 1.365 1.771.761 3.657-.562 1.755 1.117 1.127.851 2.695-.498 2.943-1.094 5.429-16.056 5.584-14.631.152-15.94-2.931-15.31-5.417.259-1.025 1.222-1.481.68-2.5-.933-1.756.147-1.933.147-4.019 0-5.76 3.049-9.876 8.633-11.475.255-.059.259-.059.84-.149Zm-5.527 4.901c-1.125.643-1.949 1.888-2.355 3.267-.401 1.359-.396 2.836.06 3.944.118.287.464.437.771.336.308-.102.463-.417.345-.704-.377-.916-.354-2.138-.023-3.263.326-1.104.948-2.125 1.849-2.639a.52.52 0 0 0 .179-.757.637.637 0 0 0-.826-.184Zm10.052-10.622a4.408 4.408 0 0 1 .241-1.541 3.48 3.48 0 0 1 .617-1.065c.292-.351.63-.603.958-.8.206-.124.414-.207.599-.295.397-.191.712-.287.873-.336.125-.038.218-.04.287-.013a.739.739 0 0 1-.108 1.461l-.038.001-.011-.004a1.307 1.307 0 0 0-.586-.063 2.403 2.403 0 0 0-1.056.399 2.344 2.344 0 0 0-.799 1.004 3.675 3.675 0 0 0-.272 1.228 4.388 4.388 0 0 1 4.033 5.527.734.734 0 0 1-.479.5v.002c-.847.276-2.215.501-3.756.501s-2.909-.225-3.756-.501h-.002a.737.737 0 0 1-.481-.501 4.556 4.556 0 0 1-.147-1.146 4.39 4.39 0 0 1 3.883-4.358Zm-2.395 3.667a.438.438 0 0 0-.393-.782c-.249.102-.47.426-.531.86-.072.503.055 1.12.269 1.368a.44.44 0 0 0 .665-.574c-.027-.03-.034-.083-.047-.14a1.57 1.57 0 0 1-.019-.531c.01-.069.043-.166.056-.201Z" style="fill:#fff" transform="matrix(2.73158 0 0 2.73158 1102.103 -1458.83)"/></svg>