<svg xmlns="http://www.w3.org/2000/svg" viewBox="0 0 150 48">
  <path fill="white" d="M-275.711 360.942a.356.356 0 0 0 .294-.078.356.356 0 0 0 .129-.275v-11.021a.359.359 0 0 0-.305-.354c-2.229-.573-15.969-4.212-19.165-5.059a.53.53 0 0 0-.457.093.533.533 0 0 0-.204.419l.053 9.752c.004.623.42 1.169 1.02 1.336 3.16.883 16.12 4.497 18.635 5.187Zm2.114-11.728a.357.357 0 0 0-.304.354v11.021a.357.357 0 0 0 .423.353c2.515-.69 15.474-4.307 18.634-5.19a1.394 1.394 0 0 0 1.019-1.336l.054-9.749a.527.527 0 0 0-.66-.512c-3.197.847-16.936 4.486-19.166 5.059Zm143.88 6.156c1.85 0 2.903-1.029 2.903-3.213 0-.456-.024-.648-.072-.864-.071-.432-.239-.72-.574-.72-.311 0-.431.264-.431.576 0 .144.024.384.024 1.008 0 .48-.048 1.824-1.273 1.824-.937 0-1.202-.672-1.202-2.184v-13.848c0-.912.168-.96.168-1.296 0-.216-.144-.384-.384-.384-.191 0-.383.072-.695.192-.839.312-1.055.384-2.35.744-.6.168-.696.36-.696.528 0 .648 1.152.288 1.152 1.296v12.816c0 2.136 1.103 3.525 3.43 3.525Zm-50.977-3.264c-.095-.432-.287-.72-.622-.72-.263.003-.431.171-.431.435 0 .432.096.648.096 1.296 0 .576-.216.864-.577.864-.506 0-.602-.384-.602-1.056v-6.05c0-2.881-1.63-4.414-4.198-4.414-1.44 0-3.145.647-4.249 2.566-.552-1.68-1.918-2.566-3.815-2.566-1.464 0-3.121.599-4.226 2.374v-.697c0-.91.168-.958.168-1.294 0-.215-.144-.383-.383-.383-.192 0-.384.072-.696.192-.791.311-1.102.407-2.134.742-.6.192-.696.359-.696.527 0 .648 1.152.288 1.152 1.296v8.16c0 .696-.888.768-.888 1.248 0 .192.12.36.552.36.672 0 .888-.069 1.703-.069.815 0 1.055.069 1.798.069.409 0 .529-.168.529-.36 0-.48-.889-.552-.889-1.248v-5.376c0-.888.048-1.368.312-2.016.505-1.248 1.585-2.208 2.954-2.208 1.393 0 2.065.936 2.065 2.616v6.984c0 .696-.888.768-.888 1.248 0 .192.12.36.552.36.672 0 .888-.069 1.703-.069.815 0 1.055.069 1.798.069.409 0 .529-.168.529-.36 0-.48-.889-.552-.889-1.248v-5.376c0-.888.048-1.368.312-2.016.505-1.248 1.585-2.208 2.954-2.208 1.393 0 2.065.936 2.065 2.616v6.336c0 1.634 1.007 2.64 2.661 2.64 1.515 0 2.376-.766 2.376-2.253 0-.603-.048-.795-.096-1.011Zm-46.512.003c-.095-.432-.263-.72-.598-.72-.311 0-.479.24-.431.576.024.216.072.792.072 1.152 0 .576-.216.864-.577.864-.506 0-.602-.384-.602-1.056v-7.97c0-1.297.096-1.68.096-2.015 0-.335-.144-.479-.383-.479-.552 0-.959 1.03-1.918 1.03-.816 0-1.92-1.03-4.225-1.03-3.458 0-5.999 2.398-5.999 6.143 0 4.153 2.565 6.766 5.71 6.766 1.753 0 3.122-.551 4.106-1.749.072 1.103 1.295 1.749 2.373 1.749 1.299 0 2.472-.718 2.472-2.253 0-.6-.048-.792-.096-1.008Zm92.208 0c-.095-.432-.263-.72-.598-.72-.311 0-.479.24-.431.576.024.216.072.792.072 1.152 0 .576-.216.864-.577.864-.506 0-.602-.384-.602-1.056v-7.97c0-1.297.096-1.68.096-2.015 0-.335-.144-.479-.383-.479-.552 0-.959 1.03-1.918 1.03-.816 0-1.92-1.03-4.225-1.03-3.458 0-5.999 2.398-5.999 6.143 0 4.153 2.565 6.766 5.71 6.766 1.753 0 3.122-.551 4.106-1.749.072 1.103 1.295 1.749 2.373 1.749 1.299 0 2.472-.718 2.472-2.253 0-.6-.048-.792-.096-1.008Zm-15.624 0c-.095-.432-.263-.72-.598-.72-.311 0-.479.24-.431.576.024.216.072.792.072 1.152 0 .576-.216.864-.577.864-.506 0-.602-.384-.602-1.056v-14.976c0-.912.169-.96.169-1.296 0-.216-.145-.384-.385-.384-.191 0-.383.072-.695.192-.839.312-1.055.384-2.35.744-.6.168-.696.36-.696.528 0 .648 1.152.288 1.152 1.296v4.39c-1.488-.79-2.593-.958-3.625-.958-3.362 0-5.999 2.398-5.999 6.383 0 3.913 2.565 6.526 5.71 6.526 1.753 0 3.122-.551 4.106-1.749.072 1.103 1.295 1.749 2.373 1.749 1.299 0 2.472-.718 2.472-2.253 0-.6-.048-.792-.096-1.008Zm-71.303 3.261c1.85 0 2.903-1.029 2.903-3.213 0-.456-.024-.648-.072-.864-.071-.432-.239-.72-.574-.72-.311 0-.431.264-.431.576 0 .144.024.384.024 1.008 0 .48-.048 1.824-1.273 1.824-.937 0-1.202-.672-1.202-2.184v-13.848c0-.912.168-.96.168-1.296 0-.216-.144-.384-.384-.384-.191 0-.383.072-.695.192-.839.312-1.055.384-2.35.744-.6.168-.696.36-.696.528 0 .648 1.152.288 1.152 1.296v12.816c0 2.136 1.103 3.525 3.43 3.525Zm48.649 0c3.625 0 6.67-2.397 6.67-6.406 0-3.817-2.781-6.503-6.622-6.503-3.626 0-6.671 2.398-6.671 6.407 0 3.817 2.781 6.502 6.623 6.502Zm-30.89-3.261c-.095-.432-.263-.72-.598-.72-.311 0-.479.24-.431.576.024.216.072.792.072 1.152 0 .576-.216.864-.577.864-.506 0-.602-.384-.602-1.056v-7.97c0-1.297.096-1.68.096-2.015 0-.335-.144-.479-.383-.479-.552 0-.959 1.03-1.918 1.03-.816 0-1.92-1.03-4.225-1.03-3.458 0-5.999 2.398-5.999 6.143 0 4.153 2.565 6.766 5.71 6.766 1.753 0 3.122-.551 4.106-1.749.072 1.103 1.295 1.749 2.373 1.749 1.299 0 2.472-.718 2.472-2.253 0-.6-.048-.792-.096-1.008Zm31.85 2.016c-2.905 0-4.802-3.625-4.802-6.602 0-2.136.985-3.817 2.953-3.817 2.905 0 4.778 3.625 4.778 6.602 0 2.089-.912 3.817-2.929 3.817Zm-59.831-3.217c0 .649-.144 1.225-.432 1.681-.48.84-1.297 1.344-2.329 1.344-2.473 0-4.082-2.881-4.082-6.121 0-2.689 1.081-4.178 3.17-4.178 1.368 0 2.593.745 3.337 2.113.336.624.336 1.152.336 1.8v3.361Zm92.208 0c0 .649-.144 1.225-.432 1.681-.48.84-1.297 1.344-2.329 1.344-2.473 0-4.082-2.881-4.082-6.121 0-2.689 1.081-4.178 3.17-4.178 1.368 0 2.593.745 3.337 2.113.336.624.336 1.152.336 1.8v3.361Zm-69.168 0c0 .649-.144 1.225-.432 1.681-.48.84-1.297 1.344-2.329 1.344-2.473 0-4.082-2.881-4.082-6.121 0-2.689 1.081-4.178 3.17-4.178 1.368 0 2.593.745 3.337 2.113.336.624.336 1.152.336 1.8v3.361Zm53.544 0c0 .649-.144 1.225-.432 1.681-.48.84-1.297 1.344-2.329 1.344-2.473 0-4.082-2.881-4.082-6.121 0-2.689 1.081-4.178 3.098-4.178 1.44 0 2.665.745 3.409 2.113.336.624.336 1.152.336 1.8v3.361Zm-106.77-10.815 7.936 2.126a.247.247 0 0 1-.001.477l-19.128 5.082c-.7.186-1.437.186-2.137 0l-19.128-5.082a.247.247 0 0 1-.001-.477l7.835-2.099v.175c.017.279.103.607.365.958.468.626 1.394 1.305 2.949 1.816 1.871.614 4.804 1.062 9.048 1.062h.117c4.947-.011 8.379-.734 10.126-1.573 1.193-.574 1.772-1.32 1.944-1.924l.045-.194.03-.347Zm-8.392-14.693c3.931 1.592 6.707 5.449 6.707 9.948 0 1.292-.464 2.484-.932 3.59-.302.714 1.434.632 1.237 1.325-.341 1.201-4.14 2.512-10.882 2.512-6.741 0-10.017-1.136-10.91-2.333-.531-.712 1.252-.747 1.296-1.134.11-.961-1.197-2.201-1.267-3.96-.175-4.389 2.646-8.173 6.43-9.832.402 1.647 2.059 1.991 4.148 1.991 2.137 0 3.821-.36 4.173-2.107Zm33.296 15.693c.168 0 .336-.024.84-.216l4.346-1.68c.192-.072.312-.216.312-.384 0-.12-.048-.264-.192-.432l-.936-1.224c-.144-.192-.312-.264-.48-.264-.168 0-.361.096-.553.264l-3.049 2.76c-.504.456-.648.624-.648.84 0 .144.072.336.36.336Zm-45.771-10.635c-.363.223-.717.657-1.031 1.223a6.48 6.48 0 0 0-.563 1.441 5.107 5.107 0 0 0-.116.576 6.779 6.779 0 0 0-.041 1.472c.083.996.387 1.8.892 2.107a.21.21 0 1 0 .253-.337c-.196-.181-.271-.492-.315-.868-.052-.452-.002-.991.084-1.56.039-.258.091-.519.14-.782.049-.262.096-.525.149-.781.087-.412.176-.803.296-1.151.148-.429.299-.789.515-1.01a.211.211 0 0 0-.263-.33Zm7.783-9.172c-.041-.648.043-1.171.194-1.594.127-.357.311-.641.51-.88.242-.291.521-.499.792-.662.17-.102.342-.17.495-.243.328-.158.589-.238.722-.278.103-.032.18-.033.236-.011a.612.612 0 0 1 .49.59.613.613 0 0 1-.578.618l-.032.001-.009-.004a1.084 1.084 0 0 0-.484-.052 1.998 1.998 0 0 0-.873.33 1.926 1.926 0 0 0-.66.829c-.149.347-.237.779-.234 1.316 1.764.027 3.187 1.452 3.187 3.203 0 1.769-1.451 1.966-3.237 1.966-1.787 0-3.238-.197-3.238-1.966 0-1.593 1.178-2.917 2.719-3.163Zm-1.567 2.638a.386.386 0 0 0-.347-.69c-.22.09-.415.376-.469.759-.063.444.049.989.238 1.208a.387.387 0 1 0 .586-.506c-.023-.027-.029-.074-.041-.124a1.362 1.362 0 0 1-.016-.469c.009-.061.038-.146.049-.178Z" style="fill-rule:nonzero" transform="translate(252.764 -261.679) scale(.84202)"/>
</svg>