<svg xmlns="http://www.w3.org/2000/svg" fill="none" viewBox="0 0 384 186">
  <path stroke="#F9FAFB" stroke-width="4" d="M192 95.875c24.231 0 43.875-19.644 43.875-43.875 0-24.232-19.644-43.875-43.875-43.875S148.125 27.768 148.125 52c0 24.231 19.644 43.875 43.875 43.875Z"/>
  <path fill="#F9FAFB" d="M192 68.25c8.975 0 16.25-7.275 16.25-16.25S200.975 35.75 192 35.75 175.75 43.025 175.75 52s7.275 16.25 16.25 16.25Z"/>
  <path fill="#F9FAFB" d="M227.75 52a35.762 35.762 0 0 1-10.471 25.28A35.76 35.76 0 0 1 192 87.75 35.752 35.752 0 0 1 156.25 52h13.351a22.393 22.393 0 0 0 6.56 15.839 22.397 22.397 0 0 0 31.678 0A22.388 22.388 0 0 0 214.399 52h13.351Z"/>
  <path fill="#fff" d="M15.533 154.904H0v30.188h4.611v-13.2H13.2v-4.314H4.611v-8.454h10.922v-4.22Zm36.214 25.914h-10.92v-25.914h-4.558v30.188h15.478v-4.274Zm25.283-25.914h-4.558v30.186h4.558v-30.186Zm42.674 8.683c0-6.688-3.641-9.115-10.153-9.115-6.014 0-10.234 2.077-10.234 9.115v12.768c0 6.647 3.883 9.223 10.234 9.223 5.541 0 10.153-1.996 10.153-9.223v-7.132h-10.153v4.22h5.541v1.362c0 3.64-1.699 6.067-5.285 6.067h-.593c-3.398 0-5.246-2.13-5.246-6.067v-9.614c0-1.941.392-3.249 1.12-4.274.876-1.159 2.238-1.793 4.126-1.793h.593c2.899 0 5.285 1.213 5.285 4.854v.148h4.612v-.539Zm41.015-8.683h-4.558v12.62h-9.722v-12.62h-4.557v30.188h4.557v-13.348h9.722v13.348h4.558v-30.188Zm39.991 0h-19.268v4.22h7.322v25.968h4.625v-25.968h7.321v-4.22Zm68.346 7.806c0-4.651-2.427-7.806-7.766-7.806h-9.56v30.188h4.558v-8.494h5.002c4.759 0 7.766-2.966 7.766-7.766v-6.122Zm-6.216-2.427c1.456.931 1.659 2.67 1.659 3.883v3.209c0 1.848-.688 3.156-1.942 3.884-1.173.728-2.723.822-3.937.822h-2.332v-12.526h2.332c1.942 0 3.249.149 4.22.728Zm42.418 20.535h-10.921v-25.914h-4.558v30.188h15.479v-4.274Zm35.487 4.274h4.516l-8.103-30.188h-5.191l-8.063 30.188h4.517l1.888-7.092h8.495l1.941 7.092Zm-6.256-22.962 3.303 11.704h-6.364l3.061-11.704ZM384 154.904h-4.612v19.361l-8.359-19.361h-4.948v30.188h4.57v-19.564l8.737 19.564H384v-30.188Z"/>
</svg>