<svg xmlns="http://www.w3.org/2000/svg" xml:space="preserve" style="fill-rule:evenodd;clip-rule:evenodd;stroke-linecap:round;stroke-linejoin:round;stroke-miterlimit:1.5" viewBox="0 0 83 78">
  <path d="M-284.551 11.525h64.044v64.044h-64.044z" style="fill:none" transform="translate(293.62 -11.525)"/>
  <path d="M-252.856 19.898c2.276.035 4.113 1.874 4.113 4.134 0 2.283-1.872 2.537-4.179 2.537-2.306 0-4.178-.254-4.178-2.537 0-2.057 1.521-3.765 3.51-4.082" style="fill:#b22222" transform="translate(310.839 -12.528) scale(1.06847)"/>
  <path d="M-294.949 140.358c0-1.127.319-2.116.956-2.967.638-.85 1.526-1.508 2.667-1.972 1.141-.464 2.449-.696 3.925-.696.738 0 1.487.056 2.248.168.76.112 1.42.291 1.979.537v-.935c0-1.098-.33-1.944-.99-2.537-.66-.593-1.638-.889-2.935-.889-.962 0-1.879.167-2.751.503-.872.335-1.789.827-2.751 1.476l-1.442-2.952a14.285 14.285 0 0 1 3.573-1.711c1.218-.38 2.499-.57 3.841-.57 2.504 0 4.456.617 5.853 1.852 1.398 1.235 2.097 2.998 2.097 5.291v5.523c0 .463.084.794.252.992.167.199.441.32.822.364v3.657a37.03 37.03 0 0 1-1.091.167 6.126 6.126 0 0 1-.822.067c-.894 0-1.571-.201-2.029-.603a2.565 2.565 0 0 1-.856-1.476l-.1-.906a7.69 7.69 0 0 1-2.852 2.281c-1.14.537-2.303.805-3.489.805-1.162 0-2.208-.237-3.136-.713-.928-.475-1.655-1.126-2.181-1.955-.525-.829-.788-1.762-.788-2.801Zm10.936.873c.246-.262.447-.523.604-.785.157-.261.235-.501.235-.719v-1.734a9.25 9.25 0 0 0-1.745-.507 9.454 9.454 0 0 0-1.778-.18c-1.162 0-2.119.246-2.868.736-.749.491-1.124 1.14-1.124 1.946 0 .437.123.851.369 1.243.246.393.604.709 1.074.949.47.24 1.029.36 1.677.36a5.44 5.44 0 0 0 1.979-.377c.649-.25 1.175-.561 1.577-.932Zm-1.14-15.364-2.885-.872 1.811-3.992h4.193l-3.119 4.864Zm9.627-4.864h4.496v18.913c0 .808.134 1.352.402 1.633.269.28.638.42 1.107.42.358 0 .727-.044 1.107-.134.38-.089.716-.201 1.007-.335l.603 3.421c-.603.291-1.308.515-2.113.671-.805.157-1.532.235-2.181.235-1.408 0-2.499-.376-3.27-1.127-.772-.751-1.158-1.822-1.158-3.212v-20.485Zm8.454 19.355c0-1.127.319-2.116.956-2.967.637-.85 1.526-1.508 2.667-1.972 1.141-.464 2.449-.696 3.925-.696.738 0 1.487.056 2.248.168.76.112 1.42.291 1.979.537v-.935c0-1.098-.33-1.944-.99-2.537-.66-.593-1.638-.889-2.935-.889-.962 0-1.879.167-2.751.503-.872.335-1.789.827-2.751 1.476l-1.442-2.952a14.295 14.295 0 0 1 3.572-1.711c1.219-.38 2.5-.57 3.842-.57 2.504 0 4.456.617 5.853 1.852 1.398 1.235 2.097 2.998 2.097 5.291v5.523c0 .463.084.794.252.992.167.199.441.32.821.364v3.657c-.402.067-.765.123-1.09.167a6.126 6.126 0 0 1-.822.067c-.894 0-1.571-.201-2.029-.603a2.565 2.565 0 0 1-.856-1.476l-.1-.906a7.69 7.69 0 0 1-2.852 2.281c-1.14.537-2.303.805-3.489.805-1.162 0-2.208-.237-3.136-.713-.928-.475-1.655-1.126-2.181-1.955-.525-.829-.788-1.762-.788-2.801Zm10.936.873c.246-.262.447-.523.604-.785.157-.261.235-.501.235-.719v-1.734a9.25 9.25 0 0 0-1.745-.507 9.454 9.454 0 0 0-1.778-.18c-1.163 0-2.119.246-2.868.736-.749.491-1.124 1.14-1.124 1.946 0 .437.123.851.369 1.243.246.393.604.709 1.074.949.47.24 1.029.36 1.677.36a5.44 5.44 0 0 0 1.979-.377c.649-.25 1.175-.561 1.577-.932Zm35.828 4.261h-4.496v-9.72c0-1.367-.24-2.375-.721-3.026-.481-.65-1.146-.975-1.996-.975-.872 0-1.705.336-2.499 1.009-.794.672-1.359 1.548-1.694 2.628v10.084h-4.495v-9.72c0-1.389-.241-2.403-.722-3.042-.48-.639-1.146-.959-1.996-.959-.872 0-1.705.328-2.499.983s-1.358 1.518-1.694 2.588v10.15h-4.495v-17.411h4.059v3.248c.671-1.128 1.565-1.996 2.684-2.604 1.118-.608 2.404-.912 3.858-.912 1.453 0 2.588.354 3.404 1.061a4.687 4.687 0 0 1 1.56 2.62c.716-1.194 1.627-2.106 2.734-2.736 1.107-.63 2.354-.945 3.741-.945 1.096 0 1.985.193 2.667.58a4.208 4.208 0 0 1 1.593 1.559c.38.652.643 1.388.789 2.206.145.818.218 1.647.218 2.488v10.846Zm11.036.335c-1.431 0-2.717-.238-3.858-.713-1.14-.476-2.107-1.134-2.901-1.974a8.896 8.896 0 0 1-1.829-2.887 9.289 9.289 0 0 1-.637-3.416c0-1.217.213-2.367.637-3.451a8.892 8.892 0 0 1 1.829-2.886c.794-.84 1.761-1.498 2.901-1.974 1.141-.476 2.427-.713 3.858-.713 1.432 0 2.712.237 3.841.713a8.522 8.522 0 0 1 4.73 4.86 9.588 9.588 0 0 1 .621 3.451 9.486 9.486 0 0 1-.621 3.416 8.652 8.652 0 0 1-1.811 2.887c-.794.84-1.761 1.498-2.902 1.974-1.14.475-2.426.713-3.858.713Zm-4.596-8.991c0 1.009.202 1.903.604 2.682.403.779.951 1.388 1.644 1.827.693.438 1.476.658 2.348.658.85 0 1.622-.225 2.315-.675a4.883 4.883 0 0 0 1.661-1.842c.413-.779.62-1.673.62-2.682 0-.988-.207-1.877-.62-2.666-.414-.79-.968-1.404-1.661-1.843a4.237 4.237 0 0 0-2.315-.658c-.872 0-1.655.225-2.348.675-.693.449-1.241 1.064-1.644 1.842-.402.779-.604 1.673-.604 2.682Zm14.727-.033c0-1.681.336-3.201 1.007-4.561.671-1.361 1.599-2.439 2.784-3.235 1.185-.796 2.538-1.194 4.059-1.194 1.297 0 2.466.318 3.506.956 1.04.637 1.85 1.448 2.432 2.432v-10.198h4.495v19.457c0 .469.078.805.235 1.006.156.201.425.324.805.369v3.657c-.783.156-1.42.234-1.912.234-.805 0-1.471-.201-1.996-.603a2.198 2.198 0 0 1-.889-1.577l-.067-1.107a6.557 6.557 0 0 1-2.634 2.516 7.373 7.373 0 0 1-3.472.872c-1.207 0-2.32-.232-3.338-.697a8.132 8.132 0 0 1-2.65-1.924 8.82 8.82 0 0 1-1.744-2.87c-.414-1.094-.621-2.272-.621-3.533Zm13.788 2.304v-4.113a4.637 4.637 0 0 0-1.074-1.712 5.958 5.958 0 0 0-1.643-1.201c-.604-.296-1.208-.444-1.812-.444-.693 0-1.319.143-1.879.428a4.743 4.743 0 0 0-1.459 1.152 4.947 4.947 0 0 0-.939 1.678 6.277 6.277 0 0 0-.319 2.007c0 .702.118 1.366.352 1.991a4.661 4.661 0 0 0 1.024 1.629c.447.461.967.823 1.56 1.086a4.696 4.696 0 0 0 1.928.395 4.13 4.13 0 0 0 1.292-.214c.436-.143.85-.34 1.241-.592.392-.253.738-.56 1.04-.922.302-.362.531-.751.688-1.168Zm6.709 1.251c0-1.127.319-2.116.956-2.967.638-.85 1.527-1.508 2.667-1.972 1.141-.464 2.449-.696 3.925-.696.738 0 1.487.056 2.248.168.76.112 1.42.291 1.979.537v-.935c0-1.098-.33-1.944-.99-2.537-.66-.593-1.638-.889-2.935-.889-.962 0-1.879.167-2.751.503-.872.335-1.789.827-2.751 1.476l-1.442-2.952a14.285 14.285 0 0 1 3.573-1.711c1.218-.38 2.499-.57 3.841-.57 2.504 0 4.456.617 5.853 1.852 1.398 1.235 2.097 2.998 2.097 5.291v5.523c0 .463.084.794.252.992.167.199.441.32.822.364v3.657a37.03 37.03 0 0 1-1.091.167 6.126 6.126 0 0 1-.822.067c-.894 0-1.571-.201-2.029-.603a2.565 2.565 0 0 1-.856-1.476l-.1-.906a7.69 7.69 0 0 1-2.852 2.281c-1.14.537-2.303.805-3.488.805-1.163 0-2.209-.237-3.137-.713-.928-.475-1.655-1.126-2.181-1.955-.525-.829-.788-1.762-.788-2.801Zm10.936.873c.246-.262.447-.523.604-.785.157-.261.235-.501.235-.719v-1.734a9.25 9.25 0 0 0-1.745-.507 9.454 9.454 0 0 0-1.778-.18c-1.162 0-2.119.246-2.868.736-.749.491-1.124 1.14-1.124 1.946 0 .437.123.851.369 1.243.246.393.604.709 1.074.949.47.24 1.029.36 1.677.36.671 0 1.331-.126 1.98-.377.648-.25 1.174-.561 1.576-.932Zm8.487-20.228h4.496v18.913c0 .808.134 1.352.402 1.633.269.28.638.42 1.107.42.358 0 .727-.044 1.107-.134.38-.089.716-.201 1.007-.335l.603 3.421c-.603.291-1.308.515-2.113.671-.805.157-1.532.235-2.18.235-1.409 0-2.5-.376-3.271-1.127-.772-.751-1.158-1.822-1.158-3.212v-20.485Z" style="fill:#fff;fill-rule:nonzero" transform="translate(167.73 -5.343) scale(.56867)"/>
  <path d="M-251.356 56.108a.35.35 0 0 0-.298.347v14.122a.348.348 0 0 0 .413.345c2.853-.781 19.599-5.453 23.64-6.583a1.761 1.761 0 0 0 1.287-1.686l.069-12.501a.515.515 0 0 0-.646-.5c-3.686.976-21.899 5.8-24.465 6.456Z" style="fill:#fff" transform="matrix(1.04699 0 0 1.02248 304.842 -13.88)"/>
  <path d="M-253.817 70.922a.348.348 0 0 0 .412-.345l.001-14.122a.353.353 0 0 0-.299-.347c-2.566-.656-20.779-5.48-24.465-6.457a.519.519 0 0 0-.447.091.518.518 0 0 0-.199.41l.068 12.504a1.76 1.76 0 0 0 1.287 1.687 11303.23 11303.23 0 0 0 23.642 6.579Z" style="fill:#fff" transform="matrix(1.03842 0 0 1.02248 303.74 -13.88)"/>
  <path d="M-261.82 22.107c-.294-.588.144-2.292.762-2.381" style="fill:none;stroke:#fff;stroke-width:1.43px" transform="rotate(-14.153 -82.423 -876.54) scale(.70108)"/>
  <path d="m-186.064 44.122.415.568c.519.695 1.632 1.449 3.435 2.058 2.456.829 6.273 1.45 11.604 1.45h.146c6.169-.019 10.658-1.206 13.112-2.379 1.145-.548 1.878-1.126 2.214-1.588.09-.023.132-.047.123-.072l10.471 2.806a.319.319 0 0 1-.001.616l-24.686 6.558c-.903.24-1.854.24-2.758 0l-24.686-6.558a.319.319 0 0 1-.001-.616l10.612-2.843Z" style="fill:#fff" transform="translate(211.7 -11.525)"/>
  <path d="M-171.515 27.972c.167.004.338.006.513.006.481 0 .928-.014 1.34-.05l.094-.008.108-.011.057-.006a6.426 6.426 0 0 0 1.113-.215l.006-.002.028-.008a3.86 3.86 0 0 0 .568-.224l.069-.036a2.861 2.861 0 0 0 .47-.312l.027-.022.016-.014a2.352 2.352 0 0 0 .265-.265 2.512 2.512 0 0 0 .31-.445l.04-.075c.072-.137.135-.284.19-.443l.014-.041.013-.037a4.195 4.195 0 0 0 .099-.36l.032-.145.11.045.036.015.075.032.041.017.07.03.042.018.071.032.039.017.085.039.024.01.109.051.028.013.08.038.039.019.07.033.041.02.069.034.04.02.075.038.032.016.107.055.106.056.036.019.071.038.039.022.068.037.039.022.071.039.035.02.105.059.104.061.029.017.075.044.037.023.067.04.039.024.067.041.036.023.076.047.027.017.102.065.018.012.083.054.034.022.068.045.036.025.066.044.036.025.07.048.03.02.099.07.099.07.028.021.071.051.034.025.065.048.035.025.066.05.031.024.08.06.016.013.098.076.018.014.077.061.03.024.066.053.032.026.064.053.031.025.071.059.023.019.094.08.093.079.024.022.068.059.029.026.063.057.029.026.067.06.024.022.089.082.092.086.016.015.073.069.025.025.064.061.026.026.064.063.024.024.074.074.012.012.089.091.085.088.019.021.066.069.023.025.062.066.023.025.067.073.016.017.083.093.084.094.012.014.068.079.02.023.061.072.021.024.063.075.016.02.078.094.082.101.076.096.015.019.062.079.018.023.059.078.017.021.066.089.008.01.075.102.075.102.008.013.063.088.015.021.057.082.016.022.059.087.01.015.07.104.072.109.067.103.011.018.055.087.014.022.054.088.012.018.064.105.066.112.064.109.007.013.054.094.012.022.05.089.011.021.053.097.007.011.059.112.06.115.056.11.01.02.046.092.011.023.046.093.009.019.053.112.054.118.051.113.009.019.041.095.011.025.039.092.011.024.042.101.005.013.048.118.046.118.006.016.038.099.01.027.033.09.011.029.033.093.009.024.041.117.041.122.004.012.033.104.025.076.007.025.023.072.007.023.025.085.008.027.025.086.006.023.023.08.004.015.024.091.006.022.024.09.005.02.024.097.024.096.004.017.022.095.004.016.022.099c.022.32.019.627-.01.924-.155 1.593-.912 2.82-1.926 3.726-1.267 1.133-2.855 1.785-4.123 1.99 1.6.015 3.78-.559 5.42-1.947.324-.275.624-.58.893-.919l-.015.203-.001.006-.009.098-.009.095-.001.01-.011.095-.011.091-.001.013-.012.092-.012.089-.003.015-.013.089-.014.087-.003.017-.015.087-.016.087-.003.017-.017.084-.002.012-.016.076-.004.017-.018.084-.003.013-.017.074-.004.017-.02.083-.004.016-.019.072-.004.017-.022.083-.005.017-.02.072-.005.016-.024.083-.006.018-.022.073-.004.015-.027.083-.006.02-.024.074-.005.013-.028.084-.007.02-.027.077-.004.011-.031.085-.008.021-.033.088-.034.087-.008.021-.035.089-.036.089-.009.021-.038.09a.128.128 0 0 0-.011.048v.006c0 .013.002.024.007.035.015.039.055.071.113.099l.017.009c.108.049.27.087.447.128l.121.029.122.03.061.017c.116.031.229.068.331.113.044.02.086.041.126.065l.019.012.02.013c.092.061.203.118.31.176l.008.005.042.023c.09.05.174.103.239.162l.013.012a.415.415 0 0 1 .045.05l.015.02a.36.36 0 0 1 .033.061l.005.015a.218.218 0 0 1 .013.072.35.35 0 0 1-.033.149.557.557 0 0 1-.032.058l-.008.013a1.055 1.055 0 0 1-.044.064l-.025.032a1.94 1.94 0 0 1-.147.168l-.051.05-.019.019-.038.035a4.617 4.617 0 0 1-.098.086 5.796 5.796 0 0 1-.867.59c-.127.073-.262.145-.405.219l-.077.038c-.835.418-1.937.84-3.289 1.211l-.064.018-.076.02a26.767 26.767 0 0 1-1.724.405l-.095.019-.145.029-.147.028-.075.014c-.465.088-.951.168-1.456.241l-.016.003-.045.006c-.201.029-.404.056-.611.082l-.167.02c-.243.03-.49.057-.741.083l-.116.012-.114.011a54.84 54.84 0 0 1-.775.067l-.182.013a45.5 45.5 0 0 1-2.958.116h-.123l-.204.001c-1.916 0-3.633-.081-5.157-.223l-.131-.012a7.874 7.874 0 0 0-.16-.016l-.108-.011-.208-.022-.156-.017-.194-.022a32.547 32.547 0 0 1-3.101-.504l-.02-.005-.053-.011-.385-.088a17.754 17.754 0 0 1-2.015-.593c-.174-.064-.34-.128-.498-.194l-.065-.027-.08-.033-.04-.018a8.917 8.917 0 0 1-.965-.488 4.747 4.747 0 0 1-.728-.523l-.041-.036a1.328 1.328 0 0 1-.039-.037l-.009-.008a2.557 2.557 0 0 1-.285-.319l-.074-.094c-.092-.113-.212-.256-.31-.42a1.408 1.408 0 0 1-.138-.3l-.008-.029-.009-.033-.004-.018-.011-.061a.79.79 0 0 1-.002-.238l.006-.034.002-.007.003-.018.005-.017.002-.01a.73.73 0 0 1 .026-.079l.007-.018.012-.027a.833.833 0 0 1 .059-.109l.005-.008.005-.009.042-.059a1.486 1.486 0 0 1 .244-.247l.044-.035.094-.068c.063-.043.126-.079.187-.108a.865.865 0 0 1 .699-.033l.023.009a1.272 1.272 0 0 1 .174.09l.02.013c.071.046.138.099.201.157a2.264 2.264 0 0 1 .212.22c.03.034.057.068.084.102.067.084.127.167.179.241l.021.031.074.104.026.036.012.016.015.02.012.014c.014.017.026.03.037.039a.055.055 0 0 0 .021.013.014.014 0 0 0 .006.002h.005c.005-.001.009-.004.012-.01a.125.125 0 0 0 .011-.051c.003-.056.011-.147.019-.254.013-.161.027-.36.029-.53 0-.118-.005-.223-.022-.292l-.004-.013a2.491 2.491 0 0 0-.116-.322 6.512 6.512 0 0 0-.446-.812l-.019-.031-.018-.028c-.211-.342-.439-.702-.63-1.11a4.699 4.699 0 0 1-.306-.852 4.203 4.203 0 0 1-.123-.866l-.003-.075-.001-.023-.001-.052-.001-.027-.001-.051-.001-.025-.001-.075v-.251l.001-.075.002-.074.002-.074.001-.025.001-.05.001-.027.002-.05.002-.024.003-.074.004-.073.002-.024.003-.05.002-.027.003-.048.002-.027.005-.073.006-.072.007-.073.003-.027.004-.047.003-.028.008-.073.007-.071.009-.073.003-.026.006-.047.004-.028.006-.046.003-.026.01-.072.011-.071.004-.025.007-.047.004-.028.007-.045.005-.028.012-.071.012-.07.013-.071.005-.028.008-.044.006-.029.009-.045.005-.026.014-.068.014-.071.006-.027.01-.043.006-.03.01-.043.006-.028.016-.07.016-.067.017-.07.007-.029.011-.042.007-.029.018-.069.018-.067.019-.07.007-.027.012-.043.008-.027.013-.046.007-.024.02-.067.02-.069.007-.023.015-.047.007-.025.01-.031.034-.107.036-.108.008-.023.035-.102.008-.024.034-.094.005-.014.037-.101.01-.028.037-.098.01-.025.032-.082.01-.027.038-.093.014-.034.009-.022c.146.282.329.536.545.764.875.923 2.233 1.402 3.782 1.627-.865-.353-1.634-.77-2.249-1.293-.861-.733-1.285-1.684-.998-3.048.013-.065.029-.13.046-.195l.036-.055.061-.094.011-.016.06-.089.013-.019.059-.086.014-.021.06-.085.014-.02.061-.086.013-.017.058-.08.013-.018.06-.081.015-.021.016-.02.065-.087.023-.029.059-.077.026-.033.056-.072.028-.034.056-.07.029-.035.056-.07.029-.034.058-.07.028-.033.06-.071.026-.031.065-.075.023-.025.074-.085.014-.015.09-.101.093-.101.092-.098.017-.018.075-.079.025-.026.067-.07.03-.03.064-.065.032-.032.063-.063.033-.032.063-.062.033-.032.064-.062.033-.031.067-.063.03-.028.072-.067.026-.024.084-.076.015-.014.101-.09.102-.09.015-.013.086-.073.029-.025.072-.061.035-.029.068-.057.038-.031.065-.053.039-.032.065-.052.04-.032.065-.051.041-.031.065-.051.04-.031.068-.051.039-.029.073-.055.033-.025.087-.063.021-.015.109-.079.108-.076.034-.023.075-.052.041-.028.069-.047.044-.029.066-.044.046-.031.065-.042.047-.031.065-.041.048-.03.065-.041.047-.03.066-.04.047-.029.069-.041.044-.027.074-.044.04-.023.114-.066.115-.066.031-.017.084-.047.043-.023.073-.04.047-.025.069-.037.05-.026.066-.035.051-.026.067-.034.051-.026.066-.033.052-.026.067-.032.051-.025.069-.033.05-.023.072-.034.046-.021.08-.037.04-.018.119-.053.012.05.007.024a3.2 3.2 0 0 0 .556 1.167 2.372 2.372 0 0 0 .269.294c.03.029.062.057.094.085l.031.026.071.057c.187.145.396.267.624.37l.113.049.151.059.042.015c.109.038.222.073.338.105.055.014.111.029.167.042l.033.008.047.01.048.011.048.01a.819.819 0 0 1 .048.01l.024.004c.056.011.113.022.171.031.48.081 1.012.122 1.59.136Z" style="fill:#fff" transform="translate(211.7 -11.525)"/>
  <path d="M-171.736 20.687a.286.286 0 0 1-.057-.156c-.061-.868.054-1.572.258-2.142.175-.492.428-.884.703-1.214.333-.4.718-.688 1.092-.912.235-.141.472-.235.682-.336.452-.217.812-.327.995-.383.142-.044.249-.045.327-.015.38.077.67.411.675.814a.843.843 0 0 1-.797.851l-.045.002-.012-.005a1.49 1.49 0 0 0-.667-.072 2.763 2.763 0 0 0-1.204.454 2.666 2.666 0 0 0-.91 1.145c-.205.475-.325 1.066-.322 1.799a.308.308 0 0 1-.009.075c-.046.103-.041.159-.394.167-.188.005-.266-.022-.315-.072Z" style="fill:#14422b" transform="translate(211.7 -11.525)"/>
</svg>
