<svg xmlns="http://www.w3.org/2000/svg" fill="none" viewBox="0 0 80 80">
  <path fill="#fff" stroke="#fff" stroke-miterlimit="10" stroke-width="3" d="M27.883 67.933c-.507 0-.76-.679-.76-2.042V32.227c0-.651-.13-.957-.395-.917-1.6.407-2.404.611-2.427.611-.445.04-.664-.407-.664-1.34v-2.925c0-.81.242-1.267.726-1.37l8.008-2.07c.062-.017.152-.028.27-.028.445 0 .665.475.665 1.431v40.278c0 1.363-.265 2.042-.789 2.042l-4.634-.006Zm20.74.062c-.81 0-1.509-.056-2.106-.17-.597-.112-1.216-.367-1.864-.763a4.738 4.738 0 0 1-1.593-1.63c-.417-.69-.755-1.657-1.014-2.896-.26-1.238-.394-2.71-.394-4.418V42.494c0-.407-.113-.611-.333-.611h-1.88c-.507 0-.76-.487-.76-1.46v-1.646c0-.995.253-1.493.76-1.493h1.88c.22 0 .333-.272.333-.82l.546-11.852c.062-1.075.32-1.612.788-1.612h3.036c.507 0 .76.537.76 1.612v11.852c0 .548.118.82.366.82h3.869c.507 0 .76.498.76 1.493v1.646c0 .973-.253 1.46-.76 1.46h-3.88c-.141 0-.237.034-.287.107-.051.068-.074.238-.074.504v15.72c0 1.177.074 2.162.226 2.942.152.78.371 1.358.664 1.72.293.362.586.61.879.73.292.124.653.18 1.075.18h2.152c.546 0 .816.38.816 1.126v1.828c0 .831-.293 1.25-.879 1.25l-3.086.005Zm11.64 3.655c.462 0 .868-.38 1.212-1.143.343-.764.518-1.844.518-3.247 0-.328-.203-1.454-.609-3.383L55.438 39.05a5.253 5.253 0 0 1-.062-.673c0-.73.152-1.098.456-1.098h3.672c.281 0 .512.096.698.289.186.192.326.582.422 1.17l3.942 20.96c.079.243.13.367.152.367.08 0 .124-.113.124-.333l3.092-20.903c.079-.61.208-1.018.377-1.233a.796.796 0 0 1 .653-.322h2.546c.343 0 .518.396.518 1.188 0 .18-.023.418-.062.7l-5.4 28.246c-.423 2.336-.89 4.124-1.397 5.363-.507 1.239-1.07 2.082-1.7 2.529-.626.446-1.454.678-2.49.701h-.304c-1.639 0-2.748-.436-3.334-1.312-.163-.181-.242-.651-.242-1.403 0-1.505.242-2.257.726-2.257.04 0 .406.101 1.093.305.698.215 1.143.317 1.346.317l-.001-.001ZM12.48 67.894c-.509 0-.763-.677-.763-2.038V32.263c0-.649-.13-.954-.395-.914-1.603.406-2.41.61-2.433.61-.446.04-.666-.407-.666-1.338v-2.919c0-.807.243-1.264.728-1.366l8.033-2.071c.062-.017.152-.029.271-.029.446 0 .666.474.666 1.428v40.192c0 1.361-.265 2.038-.79 2.038h-4.652.001Z"/>
</svg>