<svg xmlns="http://www.w3.org/2000/svg" fill="none" viewBox="0 0 150 150">
  <path fill="#f87171" stroke="#f87171" stroke-miterlimit="10" stroke-width="3" d="M51.489 110.323c-.985 0-1.477-1.319-1.477-3.969V40.931c0-1.264-.252-1.858-.766-1.781-3.107.791-4.67 1.187-4.715 1.187-.864.077-1.29-.792-1.29-2.605v-5.684c0-1.572.47-2.463 1.41-2.66l15.556-4.024c.12-.033.295-.055.525-.055.864 0 1.291.923 1.291 2.781v78.275c0 2.65-.514 3.969-1.532 3.969l-9.002-.011Zm40.288.121c-1.575 0-2.931-.11-4.09-.33-1.16-.22-2.364-.714-3.622-1.484s-2.286-1.825-3.095-3.166c-.81-1.341-1.466-3.221-1.97-5.629-.503-2.408-.765-5.266-.765-8.586V60.884c0-.791-.219-1.187-.646-1.187h-3.653c-.985 0-1.477-.946-1.477-2.836v-3.2c0-1.934.492-2.902 1.477-2.902h3.653c.427 0 .646-.528.646-1.594l1.06-23.032c.121-2.089.624-3.133 1.532-3.133h5.897c.984 0 1.476 1.044 1.476 3.133v23.032c0 1.066.23 1.594.711 1.594h7.516c.984 0 1.476.968 1.476 2.902v3.2c0 1.89-.492 2.836-1.476 2.836h-7.538c-.273 0-.459.066-.557.209-.099.132-.143.462-.143.978v30.552c0 2.286.143 4.2.438 5.716.295 1.518.722 2.639 1.29 3.343.57.703 1.138 1.187 1.707 1.418.57.242 1.27.352 2.09.352h4.178c1.062 0 1.587.736 1.587 2.187v3.551c0 1.616-.57 2.43-1.707 2.43l-5.995.011Zm22.612 7.102c.897 0 1.684-.737 2.352-2.221.667-1.484 1.006-3.584 1.006-6.31 0-.638-.394-2.826-1.181-6.575l-11.552-48.25c-.077-.55-.121-.99-.121-1.31 0-1.417.296-2.132.887-2.132h7.132c.547 0 .995.187 1.356.56.361.375.635 1.133.821 2.276l7.657 40.732c.153.473.252.715.295.715.154 0 .241-.22.241-.649l6.006-40.622c.153-1.187.404-1.978.733-2.396.328-.418.754-.627 1.269-.627h4.944c.667 0 1.006.77 1.006 2.309 0 .352-.043.813-.12 1.363l-10.49 54.892c-.821 4.54-1.729 8.014-2.713 10.422-.985 2.407-2.079 4.045-3.304 4.914-1.214.868-2.822 1.319-4.835 1.363h-.591c-3.183 0-5.338-.847-6.476-2.551-.317-.351-.47-1.264-.47-2.726 0-2.924.47-4.386 1.411-4.386.077 0 .788.197 2.122.593 1.357.418 2.221.616 2.615.616Zm-93.085-7.36c-.991 0-1.487-1.322-1.487-3.976V40.671c0-1.266-.253-1.86-.77-1.784-3.129.793-4.703 1.19-4.748 1.19-.87.077-1.299-.793-1.299-2.61v-5.694c0-1.575.474-2.467 1.42-2.665l15.672-4.042a2.09 2.09 0 0 1 .529-.055c.87 0 1.3.925 1.3 2.786v78.413c0 2.654-.518 3.976-1.542 3.976h-9.075Z"/>
</svg>