<svg width="150" height="150" fill="none" xmlns="http://www.w3.org/2000/svg">
    <path d="m106.463 53.584-.052-.022a.22.22 0 0 1-.084-.048.403.403 0 0 1-.102-.34l2.826-17.255 13.25 13.24-13.78 5.856a.307.307 0 0 1-.121.022h-.055a.4.4 0 0 1-.073-.062 6.275 6.275 0 0 0-1.809-1.391Zm19.219-1.052 14.168 14.152c2.942 2.943 4.415 4.411 4.953 6.112.08.252.146.504.197.764l-33.859-14.324a3.054 3.054 0 0 0-.054-.022c-.136-.055-.293-.117-.293-.256s.161-.204.296-.259l.044-.018 14.548-6.149Zm18.74 25.57c-.731 1.373-2.156 2.797-4.569 5.21L123.88 99.264l-20.66-4.297-.109-.022c-.183-.03-.377-.062-.377-.226a6.226 6.226 0 0 0-2.394-4.356c-.084-.084-.062-.216-.036-.336 0-.019 0-.037.007-.051l3.885-23.828.015-.08c.022-.183.055-.395.219-.395a6.324 6.324 0 0 0 4.24-2.428c.033-.037.055-.077.099-.099.117-.054.256 0 .377.051l35.273 14.905h.003Zm-24.216 24.832L93.94 129.172l4.496-27.604.007-.036a.492.492 0 0 1 .022-.106c.036-.088.132-.124.223-.161l.044-.018a6.768 6.768 0 0 0 2.54-1.888c.088-.102.194-.2.329-.219a.325.325 0 0 1 .106 0l18.496 3.797.003-.003ZM88.38 134.725l-2.96 2.958-32.733-47.255a1.531 1.531 0 0 0-.037-.05c-.051-.07-.106-.14-.095-.22.004-.058.04-.11.08-.153l.037-.048c.099-.146.183-.292.274-.449l.073-.128.011-.01c.051-.088.099-.172.187-.22.076-.036.182-.022.266-.003l36.264 7.47a.599.599 0 0 1 .278.12c.047.048.058.1.07.158a6.417 6.417 0 0 0 3.757 4.29c.102.051.058.164.011.285a.854.854 0 0 0-.055.164 62500.56 62500.56 0 0 0-5.428 33.091Zm-6.185 6.174c-2.182 2.158-3.468 3.301-4.923 3.761a7.32 7.32 0 0 1-4.409 0c-1.703-.54-3.176-2.008-6.118-4.951l-32.872-32.835 8.586-13.302a.547.547 0 0 1 .146-.172c.092-.065.223-.036.333 0a8.906 8.906 0 0 0 5.987-.303c.099-.036.198-.062.274.008a.693.693 0 0 1 .103.117l32.893 47.681v-.004Zm-51.491-37.191-7.541-7.533 14.891-6.346a.306.306 0 0 1 .121-.025c.124 0 .198.124.263.237.15.23.308.454.475.672l.048.059c.044.062.015.124-.03.182l-8.224 12.754h-.003ZM19.826 92.842l-9.54-9.53c-1.623-1.621-2.8-2.797-3.62-3.808l29.009 6.01c.036.007.073.013.11.018.179.03.376.062.376.23 0 .183-.216.267-.398.336l-.084.037-15.853 6.707ZM5 74.604a7.295 7.295 0 0 1 .329-1.808c.541-1.701 2.01-3.169 4.957-6.112L22.494 54.49a7939.932 7939.932 0 0 0 16.91 24.416c.098.131.208.278.094.387-.533.588-1.067 1.23-1.444 1.928a.585.585 0 0 1-.182.226c-.048.03-.099.019-.154.008h-.007L5 74.6v.004Zm20.762-23.38 16.416-16.397c1.542.676 7.157 3.045 12.179 5.163 3.801 1.607 7.267 3.067 8.356 3.542.11.044.208.087.256.197.029.066.014.15 0 .219a7.308 7.308 0 0 0 1.911 6.675c.11.109 0 .266-.095.401l-.05.077-16.669 25.788a.505.505 0 0 1-.157.183c-.088.055-.212.03-.314.004a8.328 8.328 0 0 0-1.985-.27c-.6 0-1.25.11-1.908.23h-.004c-.073.01-.139.025-.197-.019a.767.767 0 0 1-.165-.186L25.762 51.225Zm19.73-19.708 21.253-21.229c2.942-2.939 4.415-4.41 6.118-4.947a7.318 7.318 0 0 1 4.409 0c1.703.537 3.176 2.008 6.119 4.947l4.605 4.6L72.882 38.27a.565.565 0 0 1-.15.176c-.091.062-.22.036-.33 0a7.672 7.672 0 0 0-7.017 1.35c-.099.103-.245.044-.37-.01-1.973-.858-17.325-7.34-19.522-8.27Zm45.714-13.422 13.955 13.94-3.362 20.805v.055a.473.473 0 0 1-.03.138c-.036.073-.109.088-.182.11a6.691 6.691 0 0 0-2.004.997.57.57 0 0 0-.073.062c-.04.044-.08.084-.146.091a.417.417 0 0 1-.157-.026L77.94 45.241l-.04-.019c-.136-.055-.297-.12-.297-.259a8.02 8.02 0 0 0-1.133-3.34c-.102-.169-.215-.344-.128-.516l14.863-23.013ZM76.833 49.516 96.77 57.95c.11.052.23.1.278.212a.387.387 0 0 1 0 .208c-.059.293-.11.625-.11.96v.56c0 .138-.142.197-.274.251l-.04.015c-3.159 1.347-44.339 18.888-44.4 18.888-.063 0-.129 0-.19-.062-.11-.11 0-.263.098-.402l.051-.073 16.383-25.34.03-.043c.094-.154.204-.325.38-.325l.164.025c.373.051.702.099 1.034.099a7.404 7.404 0 0 0 6.178-3.275.584.584 0 0 1 .124-.146c.099-.074.245-.037.358.014Zm-22.83 33.537L98.888 63.93s.066 0 .128.062c.245.245.453.41.654.563l.099.062c.091.05.183.11.19.204 0 .037 0 .059-.007.091l-3.846 23.595-.014.095c-.026.182-.052.39-.223.39a6.32 6.32 0 0 0-5.019 3.093l-.018.03c-.051.083-.099.163-.183.207-.077.037-.175.022-.256.004l-35.796-7.376c-.036-.007-.555-1.894-.596-1.898Z" fill="url(#a)" />
    <defs>
        <radialGradient id="a" cx="0" cy="0" r="1" gradientUnits="userSpaceOnUse" gradientTransform="matrix(0 140 -140 0 75 5)">
            <stop stop-color="#21C5B7" />
            <stop offset="1" stop-color="#4C9ABF" />
        </radialGradient>
    </defs>
</svg>