<svg width="80" height="79" fill="none" xmlns="http://www.w3.org/2000/svg"><path fill-rule="evenodd" clip-rule="evenodd" d="M78.325 0H25.583v26.445h25.952c.924 0 1.674.75 1.674 1.674v25.594H80V1.678A1.674 1.674 0 0 0 78.326 0Z" fill="#8E75FF"/><path opacity=".405" fill-rule="evenodd" clip-rule="evenodd" d="M25.58 0v26.445H.837a.84.84 0 0 1-.587-1.436L25.58 0Zm29.056 78.75a.838.838 0 0 1-1.427-.598v-24.44H80L54.636 78.747v.003Z" fill="#8E75FF"/><path opacity=".405" d="M25.58 26.445h26.794c.459 0 .835.373.835.835v26.433H27.257a1.675 1.675 0 0 1-1.674-1.675V26.445h-.003Z" fill="#8E75FF"/></svg>