<svg width="90" height="109" fill="none" xmlns="http://www.w3.org/2000/svg"><path d="M84.262 14.305C74.22-.065 54.383-4.323 40.042 4.812l-25.186 16.05A28.873 28.873 0 0 0 1.8 40.177a30.449 30.449 0 0 0 2.994 19.546A28.913 28.913 0 0 0 .477 70.519 30.767 30.767 0 0 0 5.74 93.812c10.043 14.37 29.88 18.629 44.22 9.493l25.186-15.982a28.972 28.972 0 0 0 13.056-19.314c1.2-6.665.143-13.54-3.003-19.537a29.096 29.096 0 0 0 4.326-10.797 30.806 30.806 0 0 0-5.263-23.292" fill="#FF3E00"/><path d="M37.58 95.203a20.02 20.02 0 0 1-21.477-7.967 18.484 18.484 0 0 1-3.158-14.003c.142-.79.342-1.567.599-2.328l.473-1.448 1.294.966a32.622 32.622 0 0 0 9.821 4.886l.966.28-.087.966a5.698 5.698 0 0 0 1.053 3.718 6.035 6.035 0 0 0 6.47 2.395 5.648 5.648 0 0 0 1.545-.676l25.147-16.05a5.234 5.234 0 0 0 2.366-3.515 5.572 5.572 0 0 0-.965-4.22 6.036 6.036 0 0 0-6.47-2.396 5.523 5.523 0 0 0-1.546.676l-9.657 6.133a18.448 18.448 0 0 1-5.109 2.24 20.01 20.01 0 0 1-21.438-7.957A18.503 18.503 0 0 1 14.268 42.9a17.382 17.382 0 0 1 7.851-11.647l25.225-16.05a18.4 18.4 0 0 1 5.08-2.24A20 20 0 0 1 73.89 20.93a18.484 18.484 0 0 1 3.167 14.003c-.15.794-.35 1.577-.598 2.346l-.483 1.449-1.285-.966a32.62 32.62 0 0 0-9.85-4.925l-.965-.28.087-.966a5.66 5.66 0 0 0-1.024-3.747 6.017 6.017 0 0 0-6.432-2.327 5.526 5.526 0 0 0-1.545.676L29.768 42.214a5.263 5.263 0 0 0-2.366 3.506 5.638 5.638 0 0 0 .965 4.23 6.035 6.035 0 0 0 6.422 2.394 5.795 5.795 0 0 0 1.545-.675l9.658-6.123a17.97 17.97 0 0 1 5.118-2.25 19.99 19.99 0 0 1 21.468 7.957 18.504 18.504 0 0 1 3.167 14.003 17.384 17.384 0 0 1-7.851 11.647l-25.196 16.05a18.524 18.524 0 0 1-5.118 2.25Z" fill="#fff"/></svg>