<svg xmlns="http://www.w3.org/2000/svg" fill="none" viewBox="0 0 80 80">
  <path fill="#fff" fill-rule="evenodd" d="M39.376 18.75c-9.501 0-15.438 4.723-17.814 14.168 3.563-4.723 7.72-6.494 12.47-5.314 2.71.674 4.647 2.628 6.79 4.793C44.315 35.92 48.36 40 57.188 40c9.5 0 15.437-4.722 17.812-14.166-3.562 4.722-7.718 6.493-12.468 5.312-2.711-.674-4.649-2.628-6.792-4.791-3.493-3.528-7.535-7.605-16.364-7.605ZM21.562 40c-9.5 0-15.437 4.722-17.812 14.168 3.563-4.723 7.72-6.493 12.468-5.314 2.711.674 4.649 2.628 6.792 4.793 3.493 3.524 7.535 7.603 16.366 7.603 9.5 0 15.437-4.721 17.812-14.166-3.563 4.722-7.72 6.493-12.47 5.313-2.71-.675-4.647-2.63-6.79-4.792C34.435 44.08 30.39 40 21.562 40Z" clip-rule="evenodd"/>
</svg>