<svg xmlns="http://www.w3.org/2000/svg" fill="none" viewBox="0 0 80 80">
  <path fill="url(#a)" d="M29.168 17.992 9.012 14.39c-1.425-.255-2.501 1.268-1.783 2.527l32.037 56.179c.658 1.155 2.325 1.148 2.973-.012L73.653 16.91c.705-1.261-.376-2.772-1.796-2.512l-16.013 2.918-1.328 4.605 4.828-.931a2.854 2.854 0 0 1 3.091 4.077L43.442 62.972l-.403.622c-1.716 2.653-5.829.964-5.191-2.127l2.666-12.901-2.154.654a2.854 2.854 0 0 1-3.623-3.301l1.566-7.67-4.736 1.093a2.855 2.855 0 0 1-3.489-2.95l1.09-18.4Z"/>
  <path fill="#fff" d="M55.44 7.016 32.193 11.57a.854.854 0 0 0-.688.787l-1.43 24.152a.855.855 0 0 0 1.044.883l6.472-1.494a.854.854 0 0 1 1.029 1.003l-1.923 9.416a.854.854 0 0 0 1.084.988l3.998-1.215a.854.854 0 0 1 1.084.99l-3.056 14.79c-.191.926 1.04 1.43 1.553.637l.343-.53 18.943-37.804a.853.853 0 0 0-.925-1.22l-6.663 1.285a.854.854 0 0 1-.982-1.075L56.425 8.09a.854.854 0 0 0-.985-1.074Z"/>
  <defs>
    <linearGradient id="a" x1="6.446" x2="48.922" y1="12.381" y2="48.747" gradientUnits="userSpaceOnUse">
      <stop stop-color="#CECECE"/>
      <stop offset="1" stop-color="#9B9B9B"/>
    </linearGradient>
  </defs>
</svg>